<svg xmlns="http://www.w3.org/2000/svg" width="16" height="16" viewBox="0 0 16 16" fill="currentColor"><path d="M8 0a8.2 8.2 0 01.701.031C9.444.095 9.99.645 10.16 1.29l.17.638c.196.742.8 1.243 1.516 1.459.238.072.478.128.72.167.726.118 1.404-.2 1.873-.73l.46-.52c.486-.548 1.253-.644 1.856-.207a8.043 8.043 0 011.592 1.602c.432.6.33 1.37-.216 1.854l-.52.46c-.53.47-.848 1.147-.73 1.873.04.242.095.482.167.72.216.716.717 1.32 1.459 1.516l.638.17c.645.17 1.195.716 1.259 1.459a8.2 8.2 0 010 1.402c-.064.743-.614 1.289-1.259 1.459l-.638.17c-.742.196-1.243.8-1.459 1.516a5.8 5.8 0 01-.167.72c-.118.726.2 1.404.73 1.873l.52.46c.546.486.648 1.254.216 1.854a8.04 8.04 0 01-1.592 1.602c-.603.437-1.37.341-1.856-.207l-.46-.52c-.469-.53-1.147-.848-1.873-.73a5.8 5.8 0 01-.72.167c-.716.216-1.32.717-1.516 1.459l-.17.638c-.17.645-.716 1.195-1.459 1.259a8.2 8.2 0 01-1.402 0c-.743-.064-1.289-.614-1.459-1.259l-.17-.638c-.196-.742-.8-1.243-1.516-1.459a5.8 5.8 0 01-.72-.167c-.726-.118-1.404.2-1.873.73l-.46.52c-.486.548-1.253.648-1.856.207a8.04 8.04 0 01-1.592-1.602c-.432-.6-.33-1.368.216-1.854l.52-.46c.53-.469.848-1.147.73-1.873a5.8 5.8 0 01-.167-.72c-.216-.716-.717-1.32-1.459-1.516l-.638-.17C.645 9.99.095 9.444.031 8.701a8.2 8.2 0 010-1.402C.095 6.556.645 6.01 1.29 5.84l.638-.17c.742-.196 1.243-.8 1.459-1.516.072-.238.128-.478.167-.72.118-.726-.2-1.404-.73-1.873l-.52-.46C1.758 .615 1.656-.153 2.088-.753A8.04 8.04 0 013.68-2.355c.603-.437 1.37-.341 1.856.207l.46.52c.469.53 1.147.848 1.873.73.242-.04.482-.095.72-.167.716-.216 1.32-.717 1.516-1.459l.17-.638C10.445.193 10.991-.357 11.734-.421A8.2 8.2 0 018 0zM8 11a3 3 0 100-6 3 3 0 000 6z"/></svg>
